<svg width="113" height="100" viewBox="0 0 113 100" fill="none" xmlns="http://www.w3.org/2000/svg">
<g clip-path="url(#clip0_151_33)">
<path d="M0 18.75H112.5C112.5 11.8555 106.895 6.25 100 6.25H12.5C5.60547 6.25 0 11.8555 0 18.75ZM0 25V81.25C0 88.1445 5.60547 93.75 12.5 93.75H100C106.895 93.75 112.5 88.1445 112.5 81.25V25H0ZM12.5 79.1602C12.5 73.3984 17.168 68.75 22.9102 68.75H45.8398C51.6016 68.75 56.25 73.418 56.25 79.1602C56.25 80.3125 55.3125 81.25 54.1602 81.25H14.5898C13.4375 81.25 12.5 80.3125 12.5 79.1602ZM34.375 37.5C37.6902 37.5 40.8696 38.817 43.2138 41.1612C45.558 43.5054 46.875 46.6848 46.875 50C46.875 53.3152 45.558 56.4946 43.2138 58.8388C40.8696 61.183 37.6902 62.5 34.375 62.5C31.0598 62.5 27.8804 61.183 25.5362 58.8388C23.192 56.4946 21.875 53.3152 21.875 50C21.875 46.6848 23.192 43.5054 25.5362 41.1612C27.8804 38.817 31.0598 37.5 34.375 37.5ZM68.75 40.625C68.75 38.9062 70.1562 37.5 71.875 37.5H96.875C98.5938 37.5 100 38.9062 100 40.625C100 42.3438 98.5938 43.75 96.875 43.75H71.875C70.1562 43.75 68.75 42.3438 68.75 40.625ZM68.75 53.125C68.75 51.4062 70.1562 50 71.875 50H96.875C98.5938 50 100 51.4062 100 53.125C100 54.8438 98.5938 56.25 96.875 56.25H71.875C70.1562 56.25 68.75 54.8438 68.75 53.125ZM68.75 65.625C68.75 63.9062 70.1562 62.5 71.875 62.5H96.875C98.5938 62.5 100 63.9062 100 65.625C100 67.3438 98.5938 68.75 96.875 68.75H71.875C70.1562 68.75 68.75 67.3438 68.75 65.625Z" fill="white"/>
</g>
<defs>
<clipPath id="clip0_151_33">
<rect width="112.5" height="100" fill="white"/>
</clipPath>
</defs>
</svg>
