<svg width="50" height="50" viewBox="0 0 50 50" fill="none" xmlns="http://www.w3.org/2000/svg">
<path d="M24.8594 2.50081e-05C24.5904 0.0120262 24.3349 0.120594 24.1395 0.305811C21.9768 2.57721 20.7056 5.55229 20.5593 8.68521C20.704 11.8197 21.9754 14.7967 24.1395 17.0688L25.093 18.0244L26.5391 19.4621L32.0687 24.9917L26.5391 30.5234L27.4012 31.3856C29.979 34.0599 31.4805 37.5906 31.6185 41.3024C31.6157 42.2294 31.5095 43.1531 31.3021 44.0566L48.0588 27.2999C48.6703 26.6883 49.0139 25.8588 49.0139 24.9938C49.0139 24.1289 48.6703 23.2993 48.0588 22.6877L25.6748 0.305811C25.5662 0.202917 25.4381 0.12284 25.2981 0.0703175C25.158 0.0177949 25.0088 -0.0061072 24.8594 2.50081e-05ZM18.6991 5.93101L1.94239 22.6877C1.33085 23.2993 0.987305 24.1289 0.987305 24.9938C0.987305 25.8588 1.33085 26.6883 1.94239 27.2999L24.3243 49.6861C24.5281 49.8899 24.8047 50.0044 25.093 50.0044C25.3813 50.0044 25.6578 49.8899 25.8617 49.6861C28.0249 47.415 29.2961 44.4397 29.4419 41.3067C29.2955 38.1737 28.0244 35.1987 25.8617 32.9273L17.9325 24.9938L23.4621 19.4621L22.6 18.5999C20.0226 15.9264 18.5218 12.3962 18.3848 8.68521C18.3869 7.75832 18.4923 6.83455 18.6991 5.93101Z" fill="white"/>
</svg>
