<?xml version="1.0" encoding="utf-8"?>
<!-- Generator: Adobe Illustrator 25.2.0, SVG Export Plug-In . SVG Version: 6.00 Build 0)  -->
<svg version="1.1" id="Layer_1" xmlns="http://www.w3.org/2000/svg" xmlns:xlink="http://www.w3.org/1999/xlink" x="0px" y="0px"
	 viewBox="0 0 1500 1500" style="enable-background:new 0 0 1500 1500;" xml:space="preserve">
<style type="text/css">
	.st0{fill:#FFFFFF;}
</style>
<g>
	<path d="M695.37,779.82c-13.41,55.84-63.68,97.33-123.63,97.33c-56.68,0-104.7-37.09-121.11-88.32h-72.81
		c18.04,90.62,98.01,158.91,193.92,158.91c33.79,0,65.6-8.48,93.42-23.42v19.36h68.62v-80.33c0.6-0.86,1.2-1.72,1.78-2.59
		l-0.01-0.05C735.54,860.72,710.88,835.1,695.37,779.82z"/>
	<path d="M928.26,877.15c-60.09,0-110.44-41.68-123.72-97.7c-7.2-15.93-31.55-69.45-51.81-109.17c0,0,0,0,0-0.01
		c-0.88-1.99-1.79-3.97-2.73-5.92c-3.3-6.86-6.99-13.5-11.03-19.89c0,0,0-0.01-0.01-0.01c-35.04-55.39-96.83-92.16-167.22-92.16
		C462.53,552.26,374,640.79,374,750c0,3.07,0.07,6.12,0.21,9.16h70.71c-0.22-3.02-0.33-6.08-0.33-9.16
		c0-70.22,56.93-127.15,127.15-127.15c53.37,0,99.06,32.89,117.92,79.5c0.2-0.26,0.32-0.36,0.32-0.36s20.15,33.52,35.91,73.39
		c5.86,14.83,10.56,27.2,15.07,38.17c0,0.01,0.01,0.02,0.01,0.04c2.57,7.58,5.59,14.95,9.02,22.08
		c5.9,12.27,13.04,23.83,21.24,34.53c0,0,0,0,0,0.01c36.14,47.14,93.03,77.53,157.02,77.53c98.27,0,179.8-71.69,195.14-165.63
		h-72.08C1037.1,836.78,987.39,877.15,928.26,877.15z"/>
	<path d="M1115.05,684.98c-26.89-77.26-100.37-132.71-186.79-132.71c-65.66,0-123.84,32-159.8,81.25c7.47,13,28.56,50.6,38.53,78.16
		c16.26-51.49,64.41-88.83,121.27-88.83c46.46,0,87.1,24.92,109.28,62.13h-69.05h-13.57c-18.56,0-35.37,7.52-47.54,19.69
		c-0.38,0.38-0.75,0.76-1.12,1.14c-0.13,0.13-0.25,0.27-0.38,0.41c-0.24,0.25-0.48,0.51-0.71,0.77c-0.14,0.16-0.28,0.32-0.43,0.48
		c-0.21,0.24-0.43,0.47-0.64,0.72c-0.15,0.18-0.3,0.36-0.45,0.53c-0.19,0.23-0.39,0.46-0.58,0.69c-0.16,0.19-0.31,0.38-0.46,0.57
		c-0.18,0.23-0.37,0.45-0.55,0.68c-0.15,0.19-0.3,0.39-0.45,0.59c-0.17,0.23-0.35,0.45-0.52,0.68c-0.15,0.2-0.3,0.41-0.45,0.61
		c-0.17,0.23-0.34,0.45-0.5,0.68c-0.15,0.21-0.29,0.42-0.44,0.63c-0.16,0.23-0.32,0.46-0.48,0.69c-0.15,0.21-0.29,0.43-0.43,0.65
		c-0.15,0.23-0.31,0.46-0.46,0.69c-0.14,0.22-0.28,0.44-0.42,0.66c-0.15,0.23-0.29,0.46-0.44,0.7c-0.14,0.22-0.27,0.45-0.41,0.68
		c-0.14,0.23-0.28,0.47-0.42,0.7c-0.13,0.23-0.26,0.46-0.39,0.69c-0.13,0.24-0.27,0.47-0.4,0.71c-0.13,0.23-0.25,0.47-0.37,0.7
		c-0.13,0.24-0.26,0.48-0.38,0.73c-0.12,0.24-0.24,0.48-0.36,0.71c-0.12,0.24-0.24,0.49-0.36,0.73c-0.12,0.24-0.23,0.49-0.34,0.73
		c-0.12,0.25-0.23,0.49-0.34,0.74c-0.11,0.24-0.22,0.49-0.33,0.74c-0.11,0.25-0.22,0.5-0.33,0.75c-0.11,0.25-0.21,0.5-0.31,0.74
		c-0.1,0.25-0.21,0.51-0.31,0.76c-0.1,0.25-0.2,0.5-0.29,0.75c-0.1,0.26-0.2,0.51-0.29,0.77c-0.09,0.25-0.18,0.51-0.27,0.76
		c-0.09,0.26-0.19,0.52-0.27,0.78c-0.09,0.25-0.17,0.51-0.25,0.76c-0.09,0.26-0.17,0.53-0.26,0.79c-0.08,0.26-0.16,0.51-0.24,0.77
		c-0.08,0.27-0.16,0.54-0.24,0.8c-0.07,0.26-0.15,0.52-0.22,0.77c-0.07,0.27-0.15,0.54-0.22,0.82c-0.07,0.26-0.13,0.51-0.2,0.77
		c-0.07,0.28-0.14,0.55-0.2,0.83c-0.06,0.26-0.12,0.52-0.18,0.78c-0.06,0.28-0.12,0.56-0.18,0.84c-0.05,0.26-0.11,0.52-0.16,0.78
		c-0.06,0.29-0.11,0.57-0.16,0.86c-0.05,0.26-0.09,0.51-0.14,0.77c-0.05,0.29-0.1,0.59-0.15,0.88c-0.04,0.26-0.08,0.51-0.12,0.77
		c-0.04,0.3-0.09,0.6-0.13,0.9c-0.03,0.25-0.06,0.51-0.1,0.76c-0.04,0.31-0.07,0.61-0.11,0.92c-0.03,0.25-0.05,0.5-0.08,0.75
		c-0.03,0.31-0.06,0.63-0.08,0.94c-0.02,0.25-0.04,0.5-0.06,0.74c-0.02,0.32-0.04,0.64-0.06,0.96c-0.01,0.24-0.03,0.49-0.04,0.73
		c-0.01,0.33-0.03,0.66-0.04,0.99c-0.01,0.24-0.01,0.48-0.02,0.72c0,0.17-0.01,0.34-0.01,0.51c0,0.29,0,0.58,0,0.87h146.27h21.42
		c0-0.08,0-0.15,0-0.23h70.59c0-0.65,0.01-1.31,0.01-1.97C1126,727.22,1122.15,705.34,1115.05,684.98z"/>
</g>
</svg>
