<svg width="100" height="100" viewBox="0 0 100 100" fill="none" xmlns="http://www.w3.org/2000/svg">
<path d="M29.167 56.25L45.8337 33.3333M45.8337 33.3333L50.0003 87.5L54.167 33.3333M45.8337 33.3333H54.167M45.8337 33.3333L39.5837 68.75H60.417L54.167 33.3333M70.8337 56.25L54.167 33.3333M50.0003 20.8333C51.1054 20.8333 52.1652 20.3943 52.9466 19.6129C53.728 18.8315 54.167 17.7717 54.167 16.6667C54.167 15.5616 53.728 14.5018 52.9466 13.7204C52.1652 12.939 51.1054 12.5 50.0003 12.5C48.8953 12.5 47.8354 12.939 47.054 13.7204C46.2726 14.5018 45.8337 15.5616 45.8337 16.6667C45.8337 17.7717 46.2726 18.8315 47.054 19.6129C47.8354 20.3943 48.8953 20.8333 50.0003 20.8333Z" stroke="white" stroke-width="8.33333" stroke-linecap="round" stroke-linejoin="round"/>
</svg>
