<svg width="100" height="100" viewBox="0 0 100 100" fill="none" xmlns="http://www.w3.org/2000/svg">
<path fill-rule="evenodd" clip-rule="evenodd" d="M50.0003 8.3335C31.592 8.3335 16.667 25.0127 16.667 43.7502C16.667 62.3418 27.3045 82.5502 43.9045 90.3085C45.8125 91.2019 47.8935 91.665 50.0003 91.665C52.1071 91.665 54.1882 91.2019 56.0962 90.3085C72.6962 82.5502 83.3337 62.3418 83.3337 43.7502C83.3337 25.0127 68.4087 8.3335 50.0003 8.3335ZM50.0003 50.0002C52.2105 50.0002 54.3301 49.1222 55.8929 47.5594C57.4557 45.9966 58.3337 43.877 58.3337 41.6668C58.3337 39.4567 57.4557 37.3371 55.8929 35.7743C54.3301 34.2115 52.2105 33.3335 50.0003 33.3335C47.7902 33.3335 45.6706 34.2115 44.1078 35.7743C42.545 37.3371 41.667 39.4567 41.667 41.6668C41.667 43.877 42.545 45.9966 44.1078 47.5594C45.6706 49.1222 47.7902 50.0002 50.0003 50.0002Z" fill="white"/>
</svg>
