<svg width="18" height="18" viewBox="0 0 18 18" fill="none" xmlns="http://www.w3.org/2000/svg">
<path d="M3.30754 12.5625C3.12754 14.73 4.76254 16.5 6.93754 16.5H10.53C12.975 16.5 14.655 14.5275 14.25 12.1125C13.8225 9.5775 11.3775 7.5 8.80504 7.5C6.01504 7.5 3.54004 9.78 3.30754 12.5625ZM7.85254 5.625C8.34982 5.625 8.82673 5.42746 9.17836 5.07583C9.52999 4.72419 9.72754 4.24728 9.72754 3.75C9.72754 3.25272 9.52999 2.77581 9.17836 2.42417C8.82673 2.07254 8.34982 1.875 7.85254 1.875C7.35526 1.875 6.87834 2.07254 6.52671 2.42417C6.17508 2.77581 5.97754 3.25272 5.97754 3.75C5.97754 4.24728 6.17508 4.72419 6.52671 5.07583C6.87834 5.42746 7.35526 5.625 7.85254 5.625ZM12.975 6.525C13.3729 6.525 13.7544 6.36697 14.0357 6.08566C14.317 5.80436 14.475 5.42282 14.475 5.025C14.475 4.62718 14.317 4.24564 14.0357 3.96434C13.7544 3.68304 13.3729 3.525 12.975 3.525C12.5772 3.525 12.1957 3.68304 11.9144 3.96434C11.6331 4.24564 11.475 4.62718 11.475 5.025C11.475 5.42282 11.6331 5.80436 11.9144 6.08566C12.1957 6.36697 12.5772 6.525 12.975 6.525ZM15.75 9.525C15.8978 9.525 16.0441 9.4959 16.1806 9.43936C16.3171 9.38283 16.4411 9.29996 16.5455 9.1955C16.65 9.09103 16.7329 8.96701 16.7894 8.83052C16.8459 8.69403 16.875 8.54774 16.875 8.4C16.875 8.25226 16.8459 8.10597 16.7894 7.96948C16.7329 7.83299 16.65 7.70897 16.5455 7.6045C16.4411 7.50004 16.3171 7.41717 16.1806 7.36064C16.0441 7.3041 15.8978 7.275 15.75 7.275C15.4517 7.275 15.1655 7.39353 14.9545 7.6045C14.7436 7.81548 14.625 8.10163 14.625 8.4C14.625 8.69837 14.7436 8.98452 14.9545 9.1955C15.1655 9.40647 15.4517 9.525 15.75 9.525ZM2.97754 8.025C3.37536 8.025 3.75689 7.86697 4.0382 7.58566C4.3195 7.30436 4.47754 6.92282 4.47754 6.525C4.47754 6.12718 4.3195 5.74564 4.0382 5.46434C3.75689 5.18304 3.37536 5.025 2.97754 5.025C2.57971 5.025 2.19818 5.18304 1.91688 5.46434C1.63557 5.74564 1.47754 6.12718 1.47754 6.525C1.47754 6.92282 1.63557 7.30436 1.91688 7.58566C2.19818 7.86697 2.57971 8.025 2.97754 8.025Z" stroke="black" stroke-linecap="round" stroke-linejoin="round"/>
</svg>
