<svg xmlns="http://www.w3.org/2000/svg" xmlns:xlink="http://www.w3.org/1999/xlink" version="1.1" id="Layer_1" x="0px" y="0px" style="enable-background:new 0 0 1500 1500;" xml:space="preserve" viewBox="253 680.57 994 138.86">
<style type="text/css">
	.st0{fill:#FFFFFF;}
</style>
<g>
	<path class="st0" d="M253,793.82l62.83-111.35h25.61v20.68h-22.11l15.75-10.82l-55.67,101.48H253z M285.61,769.96l0.48-19.56h55.36   v19.56H285.61z M358.3,773.14h60.6v20.68h-86.21V682.48h84.15v20.68H358.3V773.14z M356.39,727.17H410v20.2h-53.61V727.17z"/>
	<path class="st0" d="M493.35,795.73c-8.7,0-16.76-1.43-24.18-4.29c-7.42-2.86-13.89-6.89-19.41-12.09   c-5.51-5.19-9.78-11.29-12.8-18.29c-3.02-7-4.53-14.63-4.53-22.91c0-8.38,1.51-16.04,4.53-22.99c3.02-6.94,7.29-13.02,12.8-18.21   c5.51-5.19,11.96-9.23,19.33-12.09c7.37-2.86,15.45-4.29,24.26-4.29c8.8,0,16.89,1.41,24.26,4.22c7.37,2.81,13.81,6.82,19.33,12.01   c5.51,5.2,9.78,11.29,12.8,18.29c3.02,7,4.53,14.69,4.53,23.06c0,8.27-1.51,15.93-4.53,22.99c-3.02,7.05-7.29,13.18-12.8,18.37   c-5.51,5.2-11.96,9.2-19.33,12.01C510.23,794.32,502.15,795.73,493.35,795.73z M493.35,773.94c4.98,0,9.57-0.88,13.76-2.62   c4.19-1.75,7.87-4.22,11.06-7.4c3.18-3.18,5.65-6.97,7.4-11.37c1.75-4.4,2.62-9.2,2.62-14.4c0-5.3-0.87-10.13-2.62-14.48   c-1.75-4.35-4.22-8.11-7.4-11.29c-3.18-3.18-6.87-5.65-11.06-7.4c-4.19-1.75-8.78-2.62-13.76-2.62c-4.99,0-9.6,0.88-13.84,2.62   c-4.24,1.75-7.93,4.22-11.05,7.4c-3.13,3.18-5.57,6.95-7.32,11.29c-1.75,4.35-2.62,9.17-2.62,14.48c0,5.2,0.87,10,2.62,14.4   c1.75,4.4,4.19,8.19,7.32,11.37c3.13,3.18,6.81,5.65,11.05,7.4C483.75,773.06,488.36,773.94,493.35,773.94z M529.77,819.43   c-4.35,0-8.46-0.5-12.33-1.51c-3.87-1.01-7.69-2.57-11.45-4.69c-3.77-2.12-7.66-4.96-11.69-8.51c-4.03-3.55-8.54-7.98-13.52-13.28   l27.2-6.84c2.86,3.92,5.51,7.05,7.95,9.39c2.44,2.33,4.8,4,7.08,5.01c2.28,1.01,4.69,1.51,7.24,1.51c6.79,0,12.83-2.81,18.13-8.43   l11.45,13.68C552.31,814.87,542.28,819.43,529.77,819.43z"/>
	<path class="st0" d="M623.14,795.73c-15.8,0-28.15-4.4-37.06-13.2c-8.91-8.8-13.36-21.42-13.36-37.86v-62.2h25.93v61.56   c0,10.5,2.17,18.11,6.52,22.83c4.35,4.72,10.39,7.08,18.13,7.08c7.85,0,13.94-2.36,18.29-7.08c4.35-4.72,6.52-12.33,6.52-22.83   v-61.56h25.29v62.2c0,16.44-4.45,29.06-13.36,37.86C651.14,791.33,638.84,795.73,623.14,795.73z"/>
	<path class="st0" d="M682,793.82l49.47-111.35h25.45l49.95,111.35h-27.04l-40.88-98.3h10.34l-40.88,98.3H682z M706.97,769.96   l6.52-19.56h57.58l6.68,19.56H706.97z"/>
	<path class="st0" d="M835.98,793.82v-90.35h-35.63v-21h97.03v21h-35.63v90.35H835.98z"/>
	<path class="st0" d="M963.71,795.73c-8.8,0-16.92-1.43-24.34-4.29c-7.42-2.86-13.89-6.89-19.41-12.09   c-5.52-5.19-9.78-11.29-12.8-18.29c-3.02-7-4.53-14.63-4.53-22.91c0-8.38,1.51-16.04,4.53-22.99c3.02-6.94,7.29-13.02,12.8-18.21   c5.51-5.19,11.96-9.23,19.33-12.09c7.37-2.86,15.45-4.29,24.26-4.29c8.8,0,16.89,1.41,24.26,4.22c7.37,2.81,13.81,6.82,19.33,12.01   c5.51,5.2,9.78,11.29,12.8,18.29c3.02,7,4.53,14.69,4.53,23.06c0,8.27-1.51,15.93-4.53,22.99c-3.02,7.05-7.29,13.18-12.8,18.37   c-5.52,5.2-11.96,9.2-19.33,12.01C980.43,794.32,972.4,795.73,963.71,795.73z M963.55,773.94c4.98,0,9.57-0.88,13.76-2.62   c4.19-1.75,7.87-4.24,11.06-7.48c3.18-3.23,5.65-7,7.4-11.29c1.75-4.29,2.62-9.09,2.62-14.4c0-5.3-0.87-10.1-2.62-14.4   c-1.75-4.29-4.22-8.06-7.4-11.29c-3.18-3.23-6.87-5.73-11.06-7.48c-4.19-1.75-8.78-2.62-13.76-2.62c-4.99,0-9.6,0.88-13.84,2.62   c-4.24,1.75-7.93,4.24-11.05,7.48c-3.13,3.24-5.57,7-7.32,11.29c-1.75,4.29-2.62,9.09-2.62,14.4c0,5.3,0.87,10.1,2.62,14.4   c1.75,4.29,4.19,8.06,7.32,11.29c3.13,3.24,6.81,5.73,11.05,7.48C953.95,773.06,958.56,773.94,963.55,773.94z"/>
	<path class="st0" d="M1043.87,793.82V682.48h48.2c9.97,0,18.56,1.62,25.77,4.85c7.21,3.24,12.78,7.87,16.7,13.92   c3.92,6.04,5.89,13.2,5.89,21.47c0,8.38-1.96,15.56-5.89,21.55c-3.92,5.99-9.49,10.55-16.7,13.68c-7.21,3.13-15.8,4.69-25.77,4.69   h-34.04l11.77-11.13v42.31H1043.87z M1069.8,754.37l-11.77-12.25h32.61c7.85,0,13.78-1.69,17.82-5.09   c4.03-3.39,6.04-8.16,6.04-14.32c0-6.15-2.02-10.9-6.04-14.24c-4.03-3.34-9.97-5.01-17.82-5.01h-32.61l11.77-12.25V754.37z    M1114.82,793.82l-28-40.4h27.68l28,40.4H1114.82z"/>
	<path class="st0" d="M1186.4,773.14h60.6v20.68h-86.21V682.48h84.15v20.68h-58.54V773.14z M1184.49,727.17h53.61v20.2h-53.61   V727.17z"/>
</g>
</svg>