<svg width="12" height="12" viewBox="0 0 12 12" fill="none" xmlns="http://www.w3.org/2000/svg">
<circle cx="6" cy="6" r="5.5" stroke="#7E7E7E"/>
<path d="M5.48864 7.36364V7.32955C5.49242 6.9678 5.5303 6.67992 5.60227 6.46591C5.67424 6.25189 5.77652 6.0786 5.90909 5.94602C6.04167 5.81345 6.20076 5.69129 6.38636 5.57955C6.49811 5.51136 6.59848 5.43087 6.6875 5.33807C6.77652 5.24337 6.84659 5.13447 6.89773 5.01136C6.95076 4.88826 6.97727 4.75189 6.97727 4.60227C6.97727 4.41667 6.93371 4.25568 6.84659 4.11932C6.75947 3.98295 6.64299 3.87784 6.49716 3.80398C6.35133 3.73011 6.18939 3.69318 6.01136 3.69318C5.85606 3.69318 5.70644 3.72538 5.5625 3.78977C5.41856 3.85417 5.2983 3.95549 5.2017 4.09375C5.10511 4.23201 5.04924 4.41288 5.03409 4.63636H4.31818C4.33333 4.31439 4.41667 4.03883 4.56818 3.80966C4.72159 3.58049 4.9233 3.4053 5.1733 3.28409C5.42519 3.16288 5.70455 3.10227 6.01136 3.10227C6.3447 3.10227 6.63447 3.16856 6.88068 3.30114C7.12879 3.43371 7.32008 3.61553 7.45455 3.84659C7.59091 4.07765 7.65909 4.34091 7.65909 4.63636C7.65909 4.8447 7.62689 5.03314 7.5625 5.2017C7.5 5.37027 7.40909 5.52083 7.28977 5.65341C7.17235 5.78598 7.0303 5.90341 6.86364 6.00568C6.69697 6.10985 6.56345 6.2197 6.46307 6.33523C6.36269 6.44886 6.28977 6.58428 6.24432 6.74148C6.19886 6.89867 6.17424 7.0947 6.17045 7.32955V7.36364H5.48864ZM5.85227 9.04545C5.71212 9.04545 5.59186 8.99527 5.49148 8.89489C5.3911 8.79451 5.34091 8.67424 5.34091 8.53409C5.34091 8.39394 5.3911 8.27367 5.49148 8.1733C5.59186 8.07292 5.71212 8.02273 5.85227 8.02273C5.99242 8.02273 6.11269 8.07292 6.21307 8.1733C6.31345 8.27367 6.36364 8.39394 6.36364 8.53409C6.36364 8.62689 6.33996 8.71212 6.29261 8.78977C6.24716 8.86742 6.18561 8.92992 6.10795 8.97727C6.0322 9.02273 5.94697 9.04545 5.85227 9.04545Z" fill="#7E7E7E"/>
</svg>
