<?xml version="1.0" encoding="utf-8"?>
<!-- Generator: Adobe Illustrator 25.2.0, SVG Export Plug-In . SVG Version: 6.00 Build 0)  -->
<svg version="1.1" id="Layer_1" xmlns="http://www.w3.org/2000/svg" xmlns:xlink="http://www.w3.org/1999/xlink" x="0px" y="0px"
	 viewBox="0 0 1500 1500" style="enable-background:new 0 0 1500 1500;" xml:space="preserve">
<style type="text/css">
	.st0{fill:#FFFFFF;}
</style>
<g>
	<path class="st0" d="M712.38,688.37c-9.24,38.45-43.85,67.02-85.13,67.02c-39.03,0-72.09-25.54-83.39-60.82h-50.14
		C506.14,756.97,561.2,804,627.25,804c23.27,0,45.17-5.84,64.33-16.12v13.33h47.25v-55.31c0.42-0.59,0.83-1.18,1.23-1.78l-0.01-0.03
		C740.05,744.08,723.06,726.44,712.38,688.37z"/>
	<path class="st0" d="M872.75,755.39c-41.37,0-76.05-28.7-85.19-67.28c-4.95-10.97-21.72-47.82-35.68-75.18c0,0,0,0,0-0.01
		c-0.6-1.37-1.23-2.73-1.88-4.08c-2.27-4.72-4.81-9.3-7.6-13.7c0,0,0-0.01-0.01-0.01c-24.13-38.14-66.68-63.46-115.15-63.46
		c-75.2,0-136.16,60.96-136.16,136.16c0,2.11,0.05,4.21,0.14,6.31h48.69c-0.15-2.08-0.23-4.19-0.23-6.31
		c0-48.35,39.2-87.55,87.55-87.55c36.75,0,68.21,22.64,81.2,54.74c0.14-0.18,0.22-0.25,0.22-0.25s13.87,23.08,24.73,50.54
		c4.04,10.21,7.27,18.73,10.38,26.28c0,0.01,0.01,0.02,0.01,0.03c1.77,5.22,3.85,10.29,6.21,15.2c4.06,8.45,8.98,16.41,14.63,23.78
		c0,0,0,0,0,0.01C789.52,783.07,828.69,804,872.75,804c67.67,0,123.81-49.36,134.37-114.05h-49.63
		C947.69,727.59,913.47,755.39,872.75,755.39z"/>
	<path class="st0" d="M1001.37,623.06c-18.51-53.2-69.11-91.38-128.62-91.38c-45.21,0-85.27,22.03-110.04,55.95
		c5.15,8.95,19.67,34.84,26.53,53.82c11.2-35.46,44.35-61.16,83.5-61.16c31.99,0,59.98,17.16,75.25,42.78h-47.55h-9.34
		c-12.78,0-24.36,5.18-32.73,13.56c-0.26,0.26-0.52,0.52-0.77,0.79c-0.09,0.09-0.17,0.19-0.26,0.28c-0.16,0.18-0.33,0.35-0.49,0.53
		c-0.1,0.11-0.2,0.22-0.29,0.33c-0.15,0.16-0.29,0.33-0.44,0.49c-0.11,0.12-0.21,0.25-0.31,0.37c-0.13,0.16-0.27,0.31-0.4,0.47
		c-0.11,0.13-0.21,0.26-0.32,0.39c-0.13,0.16-0.25,0.31-0.38,0.47c-0.11,0.13-0.21,0.27-0.31,0.4c-0.12,0.16-0.24,0.31-0.36,0.47
		c-0.1,0.14-0.21,0.28-0.31,0.42c-0.11,0.16-0.23,0.31-0.34,0.47c-0.1,0.14-0.2,0.29-0.3,0.43c-0.11,0.16-0.22,0.31-0.33,0.47
		c-0.1,0.15-0.2,0.3-0.3,0.45c-0.1,0.16-0.21,0.32-0.31,0.48c-0.1,0.15-0.19,0.3-0.29,0.46c-0.1,0.16-0.2,0.32-0.3,0.48
		c-0.09,0.15-0.19,0.31-0.28,0.47c-0.1,0.16-0.19,0.32-0.29,0.49c-0.09,0.16-0.18,0.32-0.27,0.48c-0.09,0.16-0.18,0.33-0.27,0.49
		c-0.09,0.16-0.17,0.32-0.26,0.48c-0.09,0.17-0.18,0.33-0.26,0.5c-0.08,0.16-0.17,0.33-0.25,0.49c-0.08,0.17-0.17,0.33-0.25,0.5
		c-0.08,0.17-0.16,0.33-0.24,0.5c-0.08,0.17-0.16,0.34-0.24,0.51c-0.08,0.17-0.15,0.34-0.23,0.51c-0.08,0.17-0.15,0.34-0.23,0.52
		c-0.07,0.17-0.14,0.34-0.21,0.51c-0.07,0.17-0.14,0.35-0.21,0.52c-0.07,0.17-0.13,0.34-0.2,0.52c-0.07,0.18-0.14,0.35-0.2,0.53
		c-0.06,0.17-0.13,0.35-0.19,0.52c-0.06,0.18-0.13,0.36-0.19,0.54c-0.06,0.17-0.12,0.35-0.18,0.53c-0.06,0.18-0.12,0.36-0.18,0.55
		c-0.06,0.18-0.11,0.35-0.16,0.53c-0.06,0.18-0.11,0.37-0.16,0.55c-0.05,0.18-0.1,0.35-0.15,0.53c-0.05,0.19-0.1,0.37-0.15,0.56
		c-0.05,0.18-0.09,0.35-0.13,0.53c-0.05,0.19-0.09,0.38-0.14,0.57c-0.04,0.18-0.08,0.36-0.12,0.53c-0.04,0.19-0.09,0.39-0.13,0.58
		c-0.04,0.18-0.07,0.36-0.11,0.53c-0.04,0.2-0.08,0.39-0.11,0.59c-0.03,0.18-0.06,0.35-0.09,0.53c-0.03,0.2-0.07,0.4-0.1,0.61
		c-0.03,0.18-0.05,0.35-0.08,0.53c-0.03,0.21-0.06,0.41-0.09,0.62c-0.02,0.17-0.04,0.35-0.07,0.53c-0.03,0.21-0.05,0.42-0.07,0.63
		c-0.02,0.17-0.04,0.34-0.05,0.52c-0.02,0.22-0.04,0.43-0.06,0.65c-0.01,0.17-0.03,0.34-0.04,0.51c-0.02,0.22-0.03,0.44-0.04,0.66
		c-0.01,0.17-0.02,0.34-0.03,0.5c-0.01,0.23-0.02,0.45-0.03,0.68c-0.01,0.16-0.01,0.33-0.01,0.49c0,0.12-0.01,0.23-0.01,0.35
		c0,0.2,0,0.4,0,0.6h100.72h14.75c0-0.05,0-0.11,0-0.16h48.61c0-0.45,0.01-0.9,0.01-1.36
		C1008.91,652.15,1006.25,637.08,1001.37,623.06z"/>
</g>
<g>
	<path class="st0" d="M344,947.4l51.33-90.96h20.92v16.89h-18.06l12.86-8.84l-45.48,82.9H344z M370.64,927.91l0.39-15.98h45.22
		v15.98H370.64z M430.02,930.51h49.51v16.89H409.1v-90.96h68.74v16.89h-47.82V930.51z M428.46,892.95h43.79v16.5h-43.79V892.95z"/>
	<path class="st0" d="M540.34,948.96c-7.1,0-13.69-1.17-19.75-3.51c-6.06-2.34-11.35-5.63-15.85-9.88
		c-4.51-4.24-7.99-9.23-10.46-14.94c-2.47-5.72-3.7-11.95-3.7-18.71c0-6.84,1.23-13.1,3.7-18.78c2.47-5.67,5.95-10.63,10.46-14.88
		c4.5-4.24,9.77-7.54,15.79-9.88c6.02-2.34,12.62-3.51,19.82-3.51c7.19,0,13.79,1.15,19.82,3.44c6.02,2.3,11.28,5.57,15.79,9.81
		c4.5,4.25,7.99,9.23,10.46,14.94c2.47,5.72,3.7,12,3.7,18.84c0,6.76-1.23,13.02-3.7,18.78c-2.47,5.76-5.96,10.76-10.46,15.01
		c-4.51,4.25-9.77,7.52-15.79,9.81C554.13,947.81,547.53,948.96,540.34,948.96z M540.34,931.16c4.07,0,7.82-0.71,11.24-2.14
		c3.42-1.43,6.43-3.44,9.03-6.04c2.6-2.6,4.61-5.69,6.04-9.29c1.43-3.59,2.14-7.51,2.14-11.76c0-4.33-0.71-8.27-2.14-11.82
		c-1.43-3.55-3.44-6.63-6.04-9.23c-2.6-2.6-5.61-4.61-9.03-6.04c-3.42-1.43-7.17-2.14-11.24-2.14c-4.07,0-7.84,0.71-11.3,2.14
		c-3.47,1.43-6.48,3.44-9.03,6.04c-2.56,2.6-4.55,5.67-5.98,9.23c-1.43,3.55-2.14,7.49-2.14,11.82c0,4.25,0.71,8.17,2.14,11.76
		c1.43,3.6,3.42,6.69,5.98,9.29c2.55,2.6,5.57,4.61,9.03,6.04C532.5,930.44,536.27,931.16,540.34,931.16z M570.1,968.32
		c-3.55,0-6.91-0.41-10.07-1.23c-3.16-0.82-6.28-2.1-9.36-3.83c-3.08-1.73-6.26-4.05-9.55-6.95c-3.29-2.9-6.97-6.52-11.04-10.85
		l22.22-5.59c2.34,3.21,4.5,5.76,6.5,7.67c1.99,1.9,3.92,3.27,5.78,4.09c1.86,0.82,3.83,1.23,5.91,1.23c5.54,0,10.48-2.3,14.81-6.89
		l9.36,11.18C588.5,964.59,580.32,968.32,570.1,968.32z"/>
	<path class="st0" d="M646.37,948.96c-12.91,0-23-3.59-30.28-10.79c-7.28-7.19-10.92-17.5-10.92-30.93v-50.81h21.18v50.29
		c0,8.58,1.77,14.79,5.33,18.65c3.55,3.86,8.49,5.78,14.81,5.78c6.41,0,11.39-1.93,14.94-5.78c3.55-3.85,5.33-10.07,5.33-18.65
		v-50.29h20.66v50.81c0,13.43-3.64,23.74-10.92,30.93C669.24,945.37,659.19,948.96,646.37,948.96z"/>
	<path class="st0" d="M694.45,947.4l40.41-90.96h20.79l40.8,90.96h-22.09l-33.4-80.3h8.45l-33.39,80.3H694.45z M714.85,927.91
		l5.33-15.98h47.04l5.46,15.98H714.85z"/>
	<path class="st0" d="M820.23,947.4v-73.81h-29.11v-17.15h79.26v17.15h-29.11v73.81H820.23z"/>
	<path class="st0" d="M924.58,948.96c-7.19,0-13.82-1.17-19.88-3.51c-6.06-2.34-11.35-5.63-15.85-9.88
		c-4.51-4.24-7.99-9.23-10.46-14.94c-2.47-5.72-3.7-11.95-3.7-18.71c0-6.84,1.23-13.1,3.7-18.78c2.47-5.67,5.95-10.63,10.46-14.88
		c4.5-4.24,9.77-7.54,15.79-9.88c6.02-2.34,12.62-3.51,19.82-3.51c7.19,0,13.79,1.15,19.82,3.44c6.02,2.3,11.28,5.57,15.79,9.81
		c4.5,4.25,7.99,9.23,10.46,14.94c2.47,5.72,3.7,12,3.7,18.84c0,6.76-1.23,13.02-3.7,18.78c-2.47,5.76-5.96,10.76-10.46,15.01
		c-4.51,4.25-9.77,7.52-15.79,9.81C938.24,947.81,931.68,948.96,924.58,948.96z M924.45,931.16c4.07,0,7.82-0.71,11.24-2.14
		c3.42-1.43,6.43-3.46,9.03-6.11c2.6-2.64,4.61-5.72,6.04-9.23c1.43-3.51,2.14-7.43,2.14-11.76c0-4.33-0.71-8.25-2.14-11.76
		c-1.43-3.51-3.44-6.58-6.04-9.23c-2.6-2.64-5.61-4.68-9.03-6.11c-3.42-1.43-7.17-2.14-11.24-2.14c-4.07,0-7.84,0.71-11.3,2.14
		c-3.47,1.43-6.48,3.47-9.03,6.11c-2.56,2.64-4.55,5.72-5.98,9.23c-1.43,3.51-2.14,7.43-2.14,11.76c0,4.33,0.71,8.25,2.14,11.76
		c1.43,3.51,3.42,6.58,5.98,9.23c2.55,2.64,5.57,4.68,9.03,6.11C916.61,930.44,920.37,931.16,924.45,931.16z"/>
	<path class="st0" d="M990.07,947.4v-90.96h39.37c8.14,0,15.16,1.32,21.05,3.96c5.89,2.64,10.44,6.43,13.64,11.37
		c3.2,4.94,4.81,10.78,4.81,17.54c0,6.84-1.6,12.71-4.81,17.61c-3.21,4.9-7.75,8.62-13.64,11.18c-5.89,2.56-12.91,3.83-21.05,3.83
		h-27.81l9.62-9.1v34.56H990.07z M1011.25,915.17l-9.62-10.01h26.64c6.41,0,11.26-1.38,14.55-4.16c3.29-2.77,4.94-6.67,4.94-11.69
		c0-5.02-1.65-8.9-4.94-11.63c-3.29-2.73-8.14-4.09-14.55-4.09h-26.64l9.62-10.01V915.17z M1048.02,947.4l-22.87-33.01h22.61
		l22.87,33.01H1048.02z"/>
	<path class="st0" d="M1106.49,930.51H1156v16.89h-70.43v-90.96h68.74v16.89h-47.82V930.51z M1104.93,892.95h43.79v16.5h-43.79
		V892.95z"/>
</g>
</svg>
