<svg width="20" height="16" viewBox="0 0 20 16" fill="none" xmlns="http://www.w3.org/2000/svg">
<path d="M1.74967 8.91669H16.0368L11.1849 13.7686C11.0982 13.8534 11.0292 13.9545 10.9819 14.0661C10.9346 14.1778 10.9099 14.2977 10.9092 14.4189C10.9085 14.5401 10.9319 14.6603 10.978 14.7724C11.0241 14.8846 11.092 14.9865 11.1777 15.0722C11.2635 15.1579 11.3654 15.2258 11.4775 15.2718C11.5897 15.3179 11.7098 15.3413 11.8311 15.3406C11.9523 15.3399 12.0722 15.3152 12.1838 15.2678C12.2954 15.2205 12.3966 15.1515 12.4813 15.0648L18.898 8.6481C19.0698 8.4762 19.1664 8.24309 19.1664 8.00002C19.1664 7.75695 19.0698 7.52384 18.898 7.35194L12.4813 0.935271C12.3963 0.850006 12.2952 0.782385 12.184 0.736292C12.0727 0.6902 11.9534 0.666546 11.833 0.666688C11.6517 0.666726 11.4745 0.720509 11.3238 0.821236C11.1731 0.921963 11.0557 1.06511 10.9863 1.23259C10.9169 1.40006 10.8988 1.58434 10.9341 1.76213C10.9695 1.93992 11.0568 2.10324 11.1849 2.23144L16.0368 7.08335H1.74967C1.50656 7.08335 1.2734 7.17993 1.10149 7.35184C0.929585 7.52375 0.833008 7.75691 0.833008 8.00002C0.833008 8.24314 0.929585 8.47629 1.10149 8.6482C1.2734 8.82011 1.50656 8.91669 1.74967 8.91669Z" fill="black"/>
</svg>
