<svg width="100" height="100" viewBox="0 0 100 100" fill="none" xmlns="http://www.w3.org/2000/svg">
<path d="M63.3625 9.54168L80.0292 26.1917C80.7472 26.9086 81.1789 27.8629 81.2434 28.8755C81.3078 29.8882 81.0005 30.8895 80.3792 31.6917L80.0333 32.0833L63.3667 48.775C62.6186 49.5302 61.6101 49.971 60.5477 50.007C59.4853 50.0431 58.4493 49.6717 57.6517 48.9689C56.8542 48.2661 56.3554 47.2851 56.2575 46.2266C56.1596 45.1681 56.4699 44.1122 57.125 43.275L57.4708 42.8833L67.0125 33.3333H22.9167C21.8961 33.3332 20.9111 32.9585 20.1485 32.2804C19.3858 31.6022 18.8986 30.6677 18.7792 29.6542L18.75 29.1625C18.7501 28.142 19.1248 27.1569 19.803 26.3943C20.4811 25.6316 21.4156 25.1444 22.4292 25.025L22.9167 24.9958H67.0417L57.475 15.4417C56.757 14.7247 56.3253 13.7704 56.2608 12.7578C56.1964 11.7452 56.5037 10.7439 57.125 9.94168L57.4708 9.54584C58.1878 8.82783 59.1421 8.3961 60.1547 8.33166C61.1673 8.26722 62.1687 8.5745 62.9708 9.19585L63.3625 9.54168ZM81.2125 70.3417L81.2375 70.8292C81.2374 71.8497 80.8627 72.8347 80.1845 73.5974C79.5064 74.36 78.5719 74.8473 77.5583 74.9667L77.0708 74.9958H32.975L42.5292 84.55C43.2472 85.2669 43.6789 86.2213 43.7434 87.2339C43.8078 88.2465 43.5005 89.2478 42.8792 90.05L42.5333 90.4417C41.8164 91.1597 40.8621 91.5914 39.8495 91.6559C38.8368 91.7203 37.8355 91.413 37.0333 90.7917L36.6417 90.4417L19.975 73.7917C19.257 73.0747 18.8253 72.1204 18.7608 71.1078C18.6964 70.0952 19.0037 69.0938 19.625 68.2917L19.9708 67.9L36.6375 51.2167C37.3856 50.4614 38.394 50.0207 39.4565 49.9847C40.5189 49.9486 41.5549 50.32 42.3524 51.0228C43.15 51.7256 43.6488 52.7066 43.7467 53.7651C43.8446 54.8236 43.5343 55.8795 42.8792 56.7167L42.5333 57.1083L32.9917 66.6625H77.075C78.0955 66.6626 79.0806 67.0373 79.8432 67.7155C80.6059 68.3936 81.0931 69.3281 81.2125 70.3417Z" fill="white"/>
</svg>
