<svg width="100" height="100" viewBox="0 0 100 100" fill="none" xmlns="http://www.w3.org/2000/svg">
<g clip-path="url(#clip0_151_63)">
<mask id="mask0_151_63" style="mask-type:luminance" maskUnits="userSpaceOnUse" x="0" y="0" width="100" height="100">
<path d="M0 0H100V100H0V0Z" fill="white"/>
<path fill-rule="evenodd" clip-rule="evenodd" d="M16.3457 41.546C16.3457 38.9959 17.3587 36.5502 19.162 34.7469C20.9652 32.9437 23.4109 31.9307 25.9611 31.9307H72.1149C74.6651 31.9307 77.1108 32.9437 78.914 34.7469C80.7173 36.5502 81.7303 38.9959 81.7303 41.546V60.7768C81.7303 63.327 80.7173 65.7727 78.914 67.5759C77.1108 69.3792 74.6651 70.3922 72.1149 70.3922H25.9611C23.4109 70.3922 20.9652 69.3792 19.162 67.5759C17.3587 65.7727 16.3457 63.327 16.3457 60.7768V41.546ZM25.9611 35.7768C24.431 35.7768 22.9636 36.3846 21.8816 37.4666C20.7997 38.5485 20.1919 40.016 20.1919 41.546V60.7768C20.1919 62.3069 20.7997 63.7743 21.8816 64.8563C22.9636 65.9382 24.431 66.546 25.9611 66.546H72.1149C73.645 66.546 75.1125 65.9382 76.1944 64.8563C77.2763 63.7743 77.8842 62.3069 77.8842 60.7768V41.546C77.8842 40.016 77.2763 38.5485 76.1944 37.4666C75.1125 36.3846 73.645 35.7768 72.1149 35.7768H25.9611Z" fill="black"/>
<path d="M56.7147 51.1616C56.7149 52.1718 56.5162 53.1721 56.1299 54.1055C55.7435 55.0388 55.1771 55.887 54.463 56.6015C53.7489 57.3159 52.9011 57.8827 51.9679 58.2696C51.0347 58.6564 50.0345 58.8556 49.0243 58.8558C48.0141 58.8561 47.0138 58.6574 46.0804 58.271C45.1471 57.8847 44.2989 57.3183 43.5845 56.6042C42.87 55.8901 42.3032 55.0422 41.9164 54.109C41.5295 53.1758 41.3303 52.1756 41.3301 51.1655C41.3301 49.1253 42.1405 47.1688 43.5831 45.7262C45.0257 44.2836 46.9823 43.4731 49.0224 43.4731C51.0625 43.4731 53.0191 44.2836 54.4617 45.7262C55.9043 47.1688 56.7147 49.1253 56.7147 51.1655V51.1616Z" fill="black"/>
<path fill-rule="evenodd" clip-rule="evenodd" d="M49.0268 55.0078C49.5419 55.0238 50.0549 54.9362 50.5355 54.7501C51.016 54.564 51.4542 54.2832 51.8242 53.9245C52.1941 53.5657 52.4881 53.1362 52.6889 52.6616C52.8896 52.187 52.9929 51.6769 52.9926 51.1616C52.9924 50.6463 52.8886 50.1362 52.6874 49.6618C52.4862 49.1874 52.1917 48.7583 51.8214 48.3999C51.4511 48.0415 51.0126 47.7611 50.5319 47.5755C50.0511 47.3899 49.538 47.3028 49.023 47.3193C48.0029 47.3193 47.0246 47.7245 46.3033 48.4458C45.582 49.1671 45.1768 50.1454 45.1768 51.1655C45.1768 52.1855 45.582 53.1638 46.3033 53.8851C47.0246 54.6064 48.0029 55.0116 49.023 55.0116L49.0268 55.0078ZM49.0268 58.8539C50.0512 58.8766 51.0698 58.6944 52.0228 58.3179C52.9758 57.9415 53.844 57.3785 54.5764 56.6619C55.3088 55.9454 55.8906 55.0897 56.2878 54.1451C56.685 53.2006 56.8894 52.1862 56.8892 51.1616C56.8889 50.1369 56.684 49.1227 56.2863 48.1783C55.8887 47.234 55.3064 46.3786 54.5736 45.6624C53.8409 44.9462 52.9724 44.3836 52.0192 44.0077C51.066 43.6317 50.0473 43.45 49.023 43.4732C46.9828 43.4732 45.0263 44.2836 43.5837 45.7262C42.1411 47.1688 41.3307 49.1254 41.3307 51.1655C41.3307 53.2056 42.1411 55.1622 43.5837 56.6048C45.0263 58.0474 46.9828 58.8578 49.023 58.8578L49.0268 58.8539ZM79.9845 52.7809C80.4741 52.9242 80.8868 53.2561 81.1316 53.7037C81.3765 54.1513 81.4336 54.6778 81.2903 55.1674C81.1469 55.657 80.815 56.0697 80.3674 56.3146C79.9199 56.5594 79.3934 56.6165 78.9037 56.4732H78.896L78.8883 56.4693L78.8653 56.4616L78.796 56.4424C78.4535 56.3293 78.1149 56.2049 77.7806 56.0693C76.8495 55.6839 75.9416 55.2447 75.0614 54.7539C71.9426 53.0019 69.0874 50.8175 66.5807 48.2655C63.9548 45.6578 61.8057 42.6105 60.2306 39.2616C59.771 38.2784 59.3766 37.2659 59.0499 36.2309C58.9321 35.854 58.8282 35.473 58.7383 35.0886L58.723 35.0116L58.7153 34.9886V34.977L60.5999 34.6001M79.9845 52.7809H79.9922ZM16.6153 46.7616C16.7948 46.2842 17.1566 45.8977 17.6211 45.6871C17.8511 45.5828 18.0994 45.5249 18.3518 45.5165C18.6042 45.5082 18.8558 45.5497 19.0922 45.6386L19.1037 45.6424L19.123 45.6501L19.1883 45.677L19.423 45.7732C20.69 46.3157 21.9253 46.9295 23.123 47.6116C25.4499 48.9386 28.5076 50.9924 31.4076 53.9001C33.887 56.4227 35.9581 59.3164 37.546 62.477C38.1882 63.7463 38.7483 65.0553 39.223 66.3963L39.3076 66.6462L39.3306 66.7193L39.3383 66.7424V66.7501L37.4999 67.3078L39.3422 66.7539C39.4896 67.2426 39.4368 67.7697 39.1956 68.2194C38.9543 68.6692 38.5443 69.0046 38.0556 69.152C37.567 69.2994 37.0399 69.2467 36.5902 69.0054C36.1404 68.7641 35.805 68.3541 35.6576 67.8655V67.8578L35.646 67.8193C35.2161 66.5867 34.7047 65.3841 34.1153 64.2193C32.7094 61.418 30.8759 58.8526 28.6806 56.6155C25.5855 53.5447 21.9486 51.0736 17.9537 49.327C17.8962 49.3035 17.8385 49.2804 17.7807 49.2578L17.7422 49.2424M16.6153 46.7616C16.5264 46.998 16.4849 47.2496 16.4932 47.502C16.5016 47.7544 16.5595 48.0027 16.6638 48.2327C16.8744 48.6972 17.261 49.059 17.7383 49.2386L16.6153 46.7616Z" fill="black"/>
</mask>
<g mask="url(#mask0_151_63)">
<path d="M50 100C77.6142 100 100 77.6142 100 50C100 22.3858 77.6142 0 50 0C22.3858 0 0 22.3858 0 50C0 77.6142 22.3858 100 50 100Z" fill="white"/>
</g>
</g>
<defs>
<clipPath id="clip0_151_63">
<rect width="100" height="100" fill="white"/>
</clipPath>
</defs>
</svg>
