<svg width="84" height="84" viewBox="0 0 84 84" fill="none" xmlns="http://www.w3.org/2000/svg">
<path fill-rule="evenodd" clip-rule="evenodd" d="M14 10.5C14 9.57174 14.3687 8.6815 15.0251 8.02513C15.6815 7.36875 16.5717 7 17.5 7H49C49.9282 7.0002 50.8183 7.36908 51.4745 8.0255L68.9745 25.5255C69.6309 26.1817 69.9998 27.0718 70 28V66.5C70 69.2848 68.8938 71.9555 66.9246 73.9246C64.9555 75.8937 62.2848 77 59.5 77H24.5C21.7152 77 19.0445 75.8937 17.0754 73.9246C15.1062 71.9555 14 69.2848 14 66.5V10.5ZM61.551 28L49 15.449V28H61.551Z" fill="white"/>
<path d="M78.2497 7.66683H77.2913V5.75016C77.2913 3.10516 75.1447 0.958496 72.4997 0.958496C69.8547 0.958496 67.708 3.10516 67.708 5.75016V7.66683H66.7497C65.6955 7.66683 64.833 8.52933 64.833 9.5835V19.1668C64.833 20.221 65.6955 21.0835 66.7497 21.0835H78.2497C79.3038 21.0835 80.1663 20.221 80.1663 19.1668V9.5835C80.1663 8.52933 79.3038 7.66683 78.2497 7.66683ZM72.4997 16.2918C71.4455 16.2918 70.583 15.4293 70.583 14.3752C70.583 13.321 71.4455 12.4585 72.4997 12.4585C73.5538 12.4585 74.4163 13.321 74.4163 14.3752C74.4163 15.4293 73.5538 16.2918 72.4997 16.2918ZM75.4705 7.66683H69.5288V5.75016C69.5288 4.11141 70.8609 2.77933 72.4997 2.77933C74.1384 2.77933 75.4705 4.11141 75.4705 5.75016V7.66683Z" fill="white"/>
</svg>
