<svg width="100" height="100" viewBox="0 0 100 100" fill="none" xmlns="http://www.w3.org/2000/svg">
<mask id="mask0_151_16" style="mask-type:luminance" maskUnits="userSpaceOnUse" x="6" y="4" width="88" height="88">
<path d="M83.3337 62.5V31.25L57.292 16.6021M42.7087 16.6021L16.667 31.25V62.5M22.917 72.2666L50.0003 87.5L66.667 78.125L77.0837 72.2645" stroke="white" stroke-width="8.33333" stroke-linecap="round" stroke-linejoin="round"/>
<path d="M43.75 39.0628L37.5 42.7087V57.292L43.75 60.9378L50 64.5837L56.25 60.9378L62.5 57.292V42.7087L56.25 39.0628L50 35.417L43.75 39.0628Z" fill="white" stroke="white" stroke-width="8.33333" stroke-linecap="round" stroke-linejoin="round"/>
<path d="M50.0003 35.4168V20.8335M62.5003 56.2502L77.0837 64.5835M37.5003 56.2502L22.917 64.5835" stroke="white" stroke-width="8.33333" stroke-linecap="round" stroke-linejoin="round"/>
<path d="M50 20.8335C53.4518 20.8335 56.25 18.0353 56.25 14.5835C56.25 11.1317 53.4518 8.3335 50 8.3335C46.5482 8.3335 43.75 11.1317 43.75 14.5835C43.75 18.0353 46.5482 20.8335 50 20.8335Z" fill="white" stroke="white" stroke-width="8.33333" stroke-linecap="round" stroke-linejoin="round"/>
<path d="M16.667 75C20.1188 75 22.917 72.2018 22.917 68.75C22.917 65.2982 20.1188 62.5 16.667 62.5C13.2152 62.5 10.417 65.2982 10.417 68.75C10.417 72.2018 13.2152 75 16.667 75Z" fill="white" stroke="white" stroke-width="8.33333" stroke-linecap="round" stroke-linejoin="round"/>
<path d="M83.334 75C86.7858 75 89.584 72.2018 89.584 68.75C89.584 65.2982 86.7858 62.5 83.334 62.5C79.8822 62.5 77.084 65.2982 77.084 68.75C77.084 72.2018 79.8822 75 83.334 75Z" fill="white" stroke="white" stroke-width="8.33333" stroke-linecap="round" stroke-linejoin="round"/>
</mask>
<g mask="url(#mask0_151_16)">
<path d="M0 0H100V100H0V0Z" fill="white"/>
</g>
</svg>
