<svg width="60" height="60" viewBox="0 0 60 60" fill="none" xmlns="http://www.w3.org/2000/svg">
<path d="M29.75 58.5C45.6286 58.5 58.5 45.6286 58.5 29.75C58.5 13.8714 45.6286 1 29.75 1C13.8714 1 1 13.8714 1 29.75C1 45.6286 13.8714 58.5 29.75 58.5Z" stroke="white" stroke-width="1.5" stroke-linecap="round" stroke-linejoin="round"/>
<path d="M29.75 35.5C31.275 35.5 32.7375 34.8942 33.8159 33.8159C34.8942 32.7375 35.5 31.275 35.5 29.75C35.5 28.225 34.8942 26.7625 33.8159 25.6841C32.7375 24.6058 31.275 24 29.75 24C28.225 24 26.7625 24.6058 25.6841 25.6841C24.6058 26.7625 24 28.225 24 29.75C24 31.275 24.6058 32.7375 25.6841 33.8159C26.7625 34.8942 28.225 35.5 29.75 35.5Z" stroke="white" stroke-width="1.5" stroke-linecap="round" stroke-linejoin="round"/>
</svg>
