<svg width="18" height="18" viewBox="0 0 18 18" fill="none" xmlns="http://www.w3.org/2000/svg">
<path d="M15 8.25C15 4.93629 12.3137 2.25 9 2.25C5.68629 2.25 3 4.93629 3 8.25" stroke="white" stroke-linecap="round" stroke-linejoin="round"/>
<path d="M1.5 11.5786V10.171C1.5 9.48269 1.96844 8.88277 2.6362 8.71582L3.94086 8.38964C4.22488 8.31862 4.5 8.53342 4.5 8.82622V12.9235C4.5 13.2163 4.22488 13.4311 3.94086 13.36L2.6362 13.0339C1.96844 12.8669 1.5 12.267 1.5 11.5786Z" stroke="white"/>
<path d="M16.5 11.5786V10.171C16.5 9.48269 16.0315 8.88277 15.3638 8.71582L14.0591 8.38964C13.7751 8.31862 13.5 8.53342 13.5 8.82622V12.9235C13.5 13.2163 13.7751 13.4311 14.0591 13.36L15.3638 13.0339C16.0315 12.8669 16.5 12.267 16.5 11.5786Z" stroke="white"/>
<path d="M15 13.5V13.875C15 14.7034 14.3284 15.375 13.5 15.375H10.875" stroke="white"/>
<path d="M10.125 16.5H7.875C7.25368 16.5 6.75 15.9963 6.75 15.375C6.75 14.7537 7.25368 14.25 7.875 14.25H10.125C10.7463 14.25 11.25 14.7537 11.25 15.375C11.25 15.9963 10.7463 16.5 10.125 16.5Z" stroke="white"/>
</svg>
