<svg width="100" height="100" viewBox="0 0 100 100" fill="none" xmlns="http://www.w3.org/2000/svg">
<path d="M26.042 8.3335C23.5556 8.3335 21.171 9.32122 19.4129 11.0794C17.6547 12.8375 16.667 15.2221 16.667 17.7085V82.2918C16.667 84.7782 17.6547 87.1628 19.4129 88.921C21.171 90.6791 23.5556 91.6668 26.042 91.6668H57.292C59.7633 91.6669 62.1347 90.6912 63.8904 88.952C65.646 87.2127 66.6439 84.8505 66.667 82.3793V76.046C66.667 75.2172 66.3377 74.4223 65.7517 73.8363C65.1656 73.2502 64.3708 72.921 63.542 72.921C61.6545 72.921 60.4628 72.4085 59.642 71.746C58.7753 71.0502 58.0587 69.9752 57.5128 68.4585C56.3753 65.3127 56.2545 61.1668 56.2545 57.2918C56.2544 56.4997 55.9536 55.7372 55.4128 55.1585L54.7253 54.421C54.5013 54.1692 54.2649 53.9286 54.017 53.7002C53.7087 53.4085 52.767 52.5127 49.0878 48.8335C47.1337 46.8793 46.0545 45.2293 45.7003 43.9668C45.5571 43.5296 45.5341 43.0619 45.6337 42.6127C45.7905 42.0946 46.0858 41.6293 46.4878 41.2668C46.8492 40.8665 47.3132 40.5726 47.8295 40.4168C48.2773 40.3172 48.7437 40.3402 49.1795 40.4835C50.4378 40.8377 52.0878 41.9252 54.042 43.8793C56.292 46.1293 58.4295 48.2377 60.342 50.1293C63.5087 53.2627 66.0628 55.796 67.5087 57.3377C68.0751 57.9388 68.8565 58.2911 69.6821 58.3178C70.5076 58.3444 71.3101 58.0432 71.9142 57.4799C72.5182 56.9165 72.8747 56.137 72.9057 55.3116C72.9367 54.4862 72.6396 53.6822 72.0795 53.0752C70.3059 51.2202 68.5015 49.395 66.667 47.6002V33.5835L78.5045 45.4252C80.2628 47.1835 81.2545 49.5668 81.2545 52.0502V88.5418C81.2545 89.3706 81.5837 90.1655 82.1698 90.7515C82.7558 91.3376 83.5507 91.6668 84.3795 91.6668C85.2083 91.6668 86.0031 91.3376 86.5892 90.7515C87.1752 90.1655 87.5045 89.3706 87.5045 88.5418V52.0543C87.5043 50.002 87.0998 47.9698 86.3141 46.0738C85.5284 44.1778 84.3769 42.4552 82.9253 41.0043L66.667 24.746V17.7043C66.6659 15.2186 65.6777 12.8351 63.9196 11.0779C62.1616 9.32064 59.7777 8.3335 57.292 8.3335H26.042ZM55.7253 76.6168C57.0951 77.7129 58.7015 78.4747 60.417 78.8418V79.1668H57.292C56.4632 79.1668 55.6683 79.4961 55.0823 80.0821C54.4962 80.6682 54.167 81.463 54.167 82.2918V85.4168H47.917V82.2918C47.9172 80.5255 48.4164 78.7952 49.357 77.3003C50.2976 75.8053 51.6414 74.6064 53.2337 73.8418C53.9003 74.8585 54.717 75.8085 55.7253 76.6168ZM50.0087 58.5252C50.017 59.5793 50.0378 60.7168 50.1003 61.9002C48.1602 63.2744 45.9134 64.1534 43.5558 64.4607C41.1982 64.768 38.8012 64.4942 36.5737 63.6632C34.3461 62.8321 32.3555 61.469 30.7752 59.6927C29.1949 57.9163 28.0729 55.7805 27.507 53.4713C26.941 51.1621 26.9482 48.7495 27.5279 46.4437C28.1076 44.138 29.2423 42.0089 30.8332 40.242C32.424 38.475 34.4227 37.1238 36.6552 36.3061C38.8877 35.4884 41.2863 35.2288 43.642 35.5502C43.0878 35.921 42.5587 36.3543 42.067 36.8502C40.8503 38.0668 39.9837 39.4752 39.5795 41.0585C39.1753 42.6418 39.2712 44.2002 39.6837 45.6585C40.4712 48.4627 42.4545 51.0377 44.6712 53.2543C46.3657 54.9696 48.0825 56.6628 49.8212 58.3335L49.8378 58.346L49.992 58.5085L50.0087 58.5252ZM29.167 14.5835H35.417V17.7085C35.417 20.1949 34.4293 22.5795 32.6711 24.3376C30.913 26.0958 28.5284 27.0835 26.042 27.0835H22.917V20.8335H26.042C26.8708 20.8335 27.6656 20.5043 28.2517 19.9182C28.8378 19.3322 29.167 18.5373 29.167 17.7085V14.5835ZM47.917 14.5835H54.167V17.7085C54.167 19.4335 55.567 20.8335 57.292 20.8335H60.417V27.0835H57.292C54.8056 27.0835 52.421 26.0958 50.6629 24.3376C48.9047 22.5795 47.917 20.1949 47.917 17.7085V14.5835ZM35.417 85.4168H29.167V82.2918C29.167 81.463 28.8378 80.6682 28.2517 80.0821C27.6656 79.4961 26.8708 79.1668 26.042 79.1668H22.917V72.9168H26.042C28.5284 72.9168 30.913 73.9045 32.6711 75.6627C34.4293 77.4209 35.417 79.8054 35.417 82.2918V85.4168Z" fill="white"/>
</svg>
