<svg width="100" height="100" viewBox="0 0 100 100" fill="none" xmlns="http://www.w3.org/2000/svg">
<g clip-path="url(#clip0_151_41)">
<path d="M60.9172 11.0916C61.708 11.3129 62.4475 11.6879 63.0934 12.1951C63.7393 12.7023 64.2789 13.3319 64.6813 14.0478C65.0837 14.7636 65.3411 15.5518 65.4388 16.3672C65.5365 17.1826 65.4725 18.0093 65.2505 18.8L46.788 84.5791C46.3404 86.1754 45.2771 87.5285 43.8319 88.3408C42.3867 89.153 40.678 89.3579 39.0817 88.9104C37.4855 88.4628 36.1324 87.3995 35.3201 85.9543C34.5078 84.5091 34.3029 82.8004 34.7505 81.2041L53.213 15.4166C53.4347 14.6261 53.81 13.8871 54.3174 13.2417C54.8248 12.5962 55.4544 12.0571 56.1703 11.6551C56.8861 11.2531 57.6741 10.996 58.4893 10.8986C59.3045 10.8012 60.1309 10.8654 60.9213 11.0875L60.9172 11.0916ZM31.5005 27.9041C32.6709 29.076 33.3283 30.6646 33.3283 32.3208C33.3283 33.9771 32.6709 35.5656 31.5005 36.7375L18.2505 50L31.5088 63.2583C32.6807 64.4308 33.3389 66.0208 33.3385 67.6785C33.3381 69.3363 32.6792 70.926 31.5067 72.0979C30.3343 73.2698 28.7443 73.928 27.0865 73.9276C25.4288 73.9272 23.8391 73.2683 22.6672 72.0958L4.98799 54.4166C3.81757 53.2448 3.16016 51.6562 3.16016 50C3.16016 48.3437 3.81757 46.7552 4.98799 45.5833L22.663 27.9041C23.2434 27.3233 23.9326 26.8626 24.6911 26.5483C25.4497 26.2339 26.2627 26.0721 27.0838 26.0721C27.9049 26.0721 28.718 26.2339 29.4765 26.5483C30.2351 26.8626 30.9201 27.3233 31.5005 27.9041ZM68.5005 36.7375C67.8864 36.1653 67.3939 35.4753 67.0523 34.7086C66.7107 33.942 66.527 33.1144 66.5122 32.2752C66.4974 31.436 66.6518 30.6024 66.9661 29.8242C67.2805 29.0459 67.7483 28.339 68.3418 27.7455C68.9353 27.152 69.6423 26.6841 70.4205 26.3698C71.1987 26.0554 72.0323 25.9011 72.8715 25.9159C73.7107 25.9307 74.5383 26.1144 75.305 26.456C76.0716 26.7976 76.7616 27.2901 77.3338 27.9041L95.013 45.5791C96.1847 46.7512 96.8429 48.3406 96.8429 49.9979C96.8429 51.6552 96.1847 53.2446 95.013 54.4166L77.338 72.0958C76.7577 72.6764 76.0688 73.1369 75.3105 73.4512C74.5522 73.7655 73.7395 73.9274 72.9186 73.9276C72.0978 73.9278 71.285 73.7663 70.5265 73.4524C69.7681 73.1384 69.079 72.6782 68.4984 72.0979C67.9179 71.5176 67.4573 70.8287 67.143 70.0704C66.8287 69.3121 66.6668 68.4994 66.6666 67.6785C66.6664 66.8577 66.8279 66.0449 67.1419 65.2864C67.4558 64.528 67.916 63.8389 68.4963 63.2583L81.7547 50L68.5005 36.7375Z" fill="white"/>
</g>
<defs>
<clipPath id="clip0_151_41">
<rect width="100" height="100" fill="white"/>
</clipPath>
</defs>
</svg>
